<?xml version="1.0" encoding="utf-8"?><svg viewBox="0 0 361 349" xmlns="http://www.w3.org/2000/svg" xmlns:xlink="http://www.w3.org/1999/xlink"><style>:root>svg{display:none}:root>svg:target{display:block}</style><svg fill="none" viewBox="0 0 30 8" id="arrow" xmlns="http://www.w3.org/2000/svg"><path d="M29.354 4.354a.5.5 0 0 0 0-.708L26.172.464a.5.5 0 1 0-.707.708L28.293 4l-2.828 2.828a.5.5 0 1 0 .707.708l3.182-3.182ZM0 4.5h29v-1H0v1Z" fill="#fff"/></svg><svg fill="none" viewBox="0 0 151 8" id="arrow-btn" xmlns="http://www.w3.org/2000/svg"><path d="M150.354 4.354a.5.5 0 0 0 0-.708L147.172.464a.501.501 0 0 0-.708.708L149.293 4l-2.829 2.828a.5.5 0 0 0 .708.708l3.182-3.182ZM0 4.5h150v-1H0v1Z" fill="#000"/></svg><svg fill="none" viewBox="0 0 168 45" id="ellipse-btn" xmlns="http://www.w3.org/2000/svg"><path d="M167.462 30.432c-.185 2.596-2.502 4.978-6.977 7.023-4.44 2.028-10.832 3.64-18.79 4.786-15.909 2.29-37.955 2.698-62.862.923-24.908-1.775-44.672-5.163-58.091-9.54-6.713-2.19-11.806-4.615-15.158-7.187C2.225 23.86.696 21.209.884 18.56c.19-2.66 2.107-5.256 5.825-7.611 3.708-2.348 9.122-4.398 16.1-5.985C36.759 1.79 56.85.494 81.748 2.268c24.896 1.774 46.602 6.05 61.967 11.317 7.686 2.635 13.759 5.509 17.849 8.425 4.124 2.939 6.084 5.812 5.898 8.422Z" stroke="#000"/></svg><svg fill="none" viewBox="0 0 343 343" id="inst" xmlns="http://www.w3.org/2000/svg"><g filter="url(#da)"><path d="M171.5 164.133a7.365 7.365 0 0 0-7.226 8.804 7.368 7.368 0 0 0 14.593-1.437 7.375 7.375 0 0 0-7.367-7.367Zm0 12.812a5.445 5.445 0 1 1-.002-10.89 5.445 5.445 0 0 1 .002 10.89Zm7.688-21.781h-15.376a8.661 8.661 0 0 0-8.648 8.648v15.376a8.661 8.661 0 0 0 8.648 8.648h15.376a8.661 8.661 0 0 0 8.648-8.648v-15.376a8.661 8.661 0 0 0-8.648-8.648Zm6.726 24.024a6.73 6.73 0 0 1-6.726 6.726h-15.376a6.73 6.73 0 0 1-6.726-6.726v-15.376a6.73 6.73 0 0 1 6.726-6.726h15.376a6.73 6.73 0 0 1 6.726 6.726v15.376Zm-4.484-16.016a1.603 1.603 0 0 1-1.914 1.571 1.603 1.603 0 1 1 1.445-2.704c.3.301.469.708.469 1.133Z" fill="#fff"/></g><defs><filter id="da" x="-3.98" y="-3.98" width="350.96" height="350.96" filterUnits="userSpaceOnUse" color-interpolation-filters="sRGB"><feFlood flood-opacity="0" result="BackgroundImageFix"/><feColorMatrix in="SourceAlpha" values="0 0 0 0 0 0 0 0 0 0 0 0 0 0 0 0 0 0 127 0" result="hardAlpha"/><feOffset/><feGaussianBlur stdDeviation="1.845"/><feColorMatrix values="0 0 0 0 1 0 0 0 0 1 0 0 0 0 1 0 0 0 1 0"/><feBlend in2="BackgroundImageFix" result="effect1_dropShadow_184_477"/><feColorMatrix in="SourceAlpha" values="0 0 0 0 0 0 0 0 0 0 0 0 0 0 0 0 0 0 127 0" result="hardAlpha"/><feOffset/><feGaussianBlur stdDeviation="3.69"/><feColorMatrix values="0 0 0 0 1 0 0 0 0 1 0 0 0 0 1 0 0 0 1 0"/><feBlend in2="effect1_dropShadow_184_477" result="effect2_dropShadow_184_477"/><feColorMatrix in="SourceAlpha" values="0 0 0 0 0 0 0 0 0 0 0 0 0 0 0 0 0 0 127 0" result="hardAlpha"/><feOffset/><feGaussianBlur stdDeviation="12.915"/><feColorMatrix values="0 0 0 0 1 0 0 0 0 1 0 0 0 0 1 0 0 0 1 0"/><feBlend in2="effect2_dropShadow_184_477" result="effect3_dropShadow_184_477"/><feColorMatrix in="SourceAlpha" values="0 0 0 0 0 0 0 0 0 0 0 0 0 0 0 0 0 0 127 0" result="hardAlpha"/><feOffset/><feGaussianBlur stdDeviation="25.83"/><feColorMatrix values="0 0 0 0 1 0 0 0 0 1 0 0 0 0 1 0 0 0 1 0"/><feBlend in2="effect3_dropShadow_184_477" result="effect4_dropShadow_184_477"/><feColorMatrix in="SourceAlpha" values="0 0 0 0 0 0 0 0 0 0 0 0 0 0 0 0 0 0 127 0" result="hardAlpha"/><feOffset/><feGaussianBlur stdDeviation="44.28"/><feColorMatrix values="0 0 0 0 1 0 0 0 0 1 0 0 0 0 1 0 0 0 1 0"/><feBlend in2="effect4_dropShadow_184_477" result="effect5_dropShadow_184_477"/><feColorMatrix in="SourceAlpha" values="0 0 0 0 0 0 0 0 0 0 0 0 0 0 0 0 0 0 127 0" result="hardAlpha"/><feOffset/><feGaussianBlur stdDeviation="77.49"/><feColorMatrix values="0 0 0 0 1 0 0 0 0 1 0 0 0 0 1 0 0 0 1 0"/><feBlend in2="effect5_dropShadow_184_477" result="effect6_dropShadow_184_477"/><feBlend in="SourceGraphic" in2="effect6_dropShadow_184_477" result="shape"/></filter></defs></svg><svg fill="none" viewBox="0 0 163 162" id="services-1" xmlns="http://www.w3.org/2000/svg"><path fill="#fff" stroke="#000" d="M31.164 109.37 133.685 6.848l21.339 21.339L52.502 130.708z"/><path fill="#fff" stroke="#000" d="M120.847 19.686 133.684 6.85l21.339 21.338-12.838 12.837z"/><path fill="#fff" stroke="#000" d="m135.885 10.158 9.45-9.45L162.11 17.48l-9.45 9.45zM52.38 130.631l-38.574 17.417 17.417-38.574 21.157 21.157Z"/><path d="m29.092 141.146-15.285 6.902 6.9-15.286 8.385 8.384Z" fill="#fff" stroke="#000"/><rect x="53.062" y="121.528" width="7.504" height="41.289" rx="3.752" transform="rotate(-135 53.062 121.528)" fill="#fff" stroke="#000"/></svg><svg fill="none" viewBox="0 0 179 134" id="services-2" xmlns="http://www.w3.org/2000/svg"><path d="M61.5 123.672c0 5.418-4.332 9.799-9.66 9.799-5.33 0-9.66-4.381-9.66-9.799 0-5.419 4.33-9.8 9.66-9.8 5.328 0 9.66 4.381 9.66 9.8ZM101.19 123.673c0 5.418-4.332 9.799-9.66 9.799-5.33 0-9.661-4.381-9.661-9.799 0-5.419 4.331-9.8 9.66-9.8 5.33 0 9.661 4.381 9.661 9.8Z" fill="#fff" stroke="#000"/><path fill-rule="evenodd" clip-rule="evenodd" d="M1 30.372h67.892a8.812 8.812 0 0 1 0 17.623H27.617l18.057 42.576a8.812 8.812 0 1 1-16.225 6.881L1 30.372ZM134.411 1h34.375a8.812 8.812 0 1 1 0 17.623h-22.411l-31.531 79.418a8.811 8.811 0 0 1-11.441 4.938 8.811 8.811 0 0 1-4.938-11.441L134.41 1Z" fill="#fff" stroke="#000" stroke-linecap="round"/><path d="M30.499 99.903 8.069 47.315h126.693L114.121 99.52a15.563 15.563 0 0 1-14.473 9.84H44.814A15.564 15.564 0 0 1 30.5 99.903Z" fill="#fff" stroke="#000"/><circle cx="167.313" cy="9.567" r="4.65" fill="#fff" stroke="#000"/></svg><svg fill="none" viewBox="0 0 139 126" id="services-3" xmlns="http://www.w3.org/2000/svg"><rect x=".5" y="12.49" width="137.751" height="16.13" rx="5.633" fill="#fff" stroke="#000"/><rect x=".5" y="55.315" width="137.751" height="16.13" rx="5.633" fill="#fff" stroke="#000"/><rect x=".5" y="98.139" width="137.751" height="16.13" rx="5.633" fill="#fff" stroke="#000"/><path d="M53.03 105.824c0 10.873-8.697 19.676-19.413 19.676-10.716 0-19.414-8.803-19.414-19.676 0-10.873 8.698-19.676 19.414-19.676 10.716 0 19.414 8.803 19.414 19.676ZM124.12 63c0 10.872-8.698 19.675-19.414 19.675-10.716 0-19.414-8.803-19.414-19.675 0-10.873 8.698-19.676 19.414-19.676 10.716 0 19.414 8.803 19.414 19.675ZM89.004 20.176c0 10.873-8.698 19.676-19.414 19.676-10.716 0-19.414-8.803-19.414-19.676C50.176 9.303 58.874.5 69.59.5c10.716 0 19.414 8.803 19.414 19.676Z" fill="#fff" stroke="#000"/><circle cx="69.803" cy="20.127" r="6.78" fill="#fff" stroke="#000"/><circle cx="104.919" cy="62.952" r="6.78" fill="#fff" stroke="#000"/><circle cx="33.831" cy="105.776" r="6.78" fill="#fff" stroke="#000"/><rect x=".5" y="12.49" width="137.751" height="16.13" rx="5.633" fill="#fff" stroke="#000"/><rect x=".5" y="55.315" width="137.751" height="16.13" rx="5.633" fill="#fff" stroke="#000"/><rect x=".5" y="98.139" width="137.751" height="16.13" rx="5.633" fill="#fff" stroke="#000"/><path d="M53.03 105.824c0 10.873-8.697 19.676-19.413 19.676-10.716 0-19.414-8.803-19.414-19.676 0-10.873 8.698-19.676 19.414-19.676 10.716 0 19.414 8.803 19.414 19.676ZM124.12 63c0 10.872-8.698 19.675-19.414 19.675-10.716 0-19.414-8.803-19.414-19.675 0-10.873 8.698-19.676 19.414-19.676 10.716 0 19.414 8.803 19.414 19.675ZM89.004 20.176c0 10.873-8.698 19.676-19.414 19.676-10.716 0-19.414-8.803-19.414-19.676C50.176 9.303 58.874.5 69.59.5c10.716 0 19.414 8.803 19.414 19.676Z" fill="#fff" stroke="#000"/></svg><svg fill="none" viewBox="0 0 140 169" id="services-4" xmlns="http://www.w3.org/2000/svg"><rect x="29.539" y="72.83" width="89.918" height="12.717" rx="6.358" transform="rotate(-32.728 29.54 72.83)" fill="#fff" stroke="#000"/><rect x="36.093" y="82.107" width="89.918" height="12.717" rx="6.358" transform="rotate(32.9 36.093 82.107)" fill="#fff" stroke="#000"/><circle cx="111.968" cy="27.874" r="27.374" fill="#fff" stroke="#000"/><circle cx="27.874" cy="81.732" r="27.374" fill="#fff" stroke="#000"/><path d="M139.342 140.787c0 14.85-12.247 26.902-27.374 26.902-15.126 0-27.374-12.052-27.374-26.902 0-14.849 12.248-26.901 27.374-26.901 15.127 0 27.374 12.052 27.374 26.901Z" fill="#fff" stroke="#000"/><circle cx="28.819" cy="80.787" r="8.476" fill="#fff" stroke="#000"/><path d="M121.39 140.315c0 4.657-3.982 8.476-8.949 8.476s-8.949-3.819-8.949-8.476c0-4.658 3.982-8.477 8.949-8.477s8.949 3.819 8.949 8.477Z" fill="#fff" stroke="#000"/><circle cx="112.441" cy="27.401" r="8.949" fill="#fff" stroke="#000"/></svg><svg fill="none" viewBox="0 0 298 233" id="services-5" xmlns="http://www.w3.org/2000/svg"><g filter="url(#ia)"><path stroke="#000" d="M62.5 74.5h138.223v116.777H62.5z"/></g><g filter="url(#ib)"><path stroke="#000" d="M70.647 80.302h121.928v86.54H70.647z"/></g><g filter="url(#ic)"><path d="M120.97 195.788a6.115 6.115 0 0 1 5.774-4.102h10.117a6.114 6.114 0 0 1 5.809 4.207l3.334 10.158c1.298 3.954-1.647 8.021-5.809 8.021h-16.991c-4.208 0-7.158-4.152-5.773-8.126l3.539-10.158Z" stroke="#000"/></g><g filter="url(#id)"><rect x="100.222" y="208.318" width="62.779" height="9.437" rx="4.718" stroke="#000"/></g><defs><filter id="ia" x="-464.264" y="-452.264" width="1191.75" height="1170.3" filterUnits="userSpaceOnUse" color-interpolation-filters="sRGB"><feFlood flood-opacity="0" result="BackgroundImageFix"/><feColorMatrix in="SourceAlpha" values="0 0 0 0 0 0 0 0 0 0 0 0 0 0 0 0 0 0 127 0" result="hardAlpha"/><feOffset/><feGaussianBlur stdDeviation="6.265"/><feColorMatrix values="0 0 0 0 1 0 0 0 0 1 0 0 0 0 1 0 0 0 1 0"/><feBlend in2="BackgroundImageFix" result="effect1_dropShadow_108_68"/><feColorMatrix in="SourceAlpha" values="0 0 0 0 0 0 0 0 0 0 0 0 0 0 0 0 0 0 127 0" result="hardAlpha"/><feOffset/><feGaussianBlur stdDeviation="12.53"/><feColorMatrix values="0 0 0 0 1 0 0 0 0 1 0 0 0 0 1 0 0 0 1 0"/><feBlend in2="effect1_dropShadow_108_68" result="effect2_dropShadow_108_68"/><feColorMatrix in="SourceAlpha" values="0 0 0 0 0 0 0 0 0 0 0 0 0 0 0 0 0 0 127 0" result="hardAlpha"/><feOffset/><feGaussianBlur stdDeviation="43.855"/><feColorMatrix values="0 0 0 0 1 0 0 0 0 1 0 0 0 0 1 0 0 0 1 0"/><feBlend in2="effect2_dropShadow_108_68" result="effect3_dropShadow_108_68"/><feColorMatrix in="SourceAlpha" values="0 0 0 0 0 0 0 0 0 0 0 0 0 0 0 0 0 0 127 0" result="hardAlpha"/><feOffset/><feGaussianBlur stdDeviation="87.711"/><feColorMatrix values="0 0 0 0 1 0 0 0 0 1 0 0 0 0 1 0 0 0 1 0"/><feBlend in2="effect3_dropShadow_108_68" result="effect4_dropShadow_108_68"/><feColorMatrix in="SourceAlpha" values="0 0 0 0 0 0 0 0 0 0 0 0 0 0 0 0 0 0 127 0" result="hardAlpha"/><feOffset/><feGaussianBlur stdDeviation="150.361"/><feColorMatrix values="0 0 0 0 1 0 0 0 0 1 0 0 0 0 1 0 0 0 1 0"/><feBlend in2="effect4_dropShadow_108_68" result="effect5_dropShadow_108_68"/><feColorMatrix in="SourceAlpha" values="0 0 0 0 0 0 0 0 0 0 0 0 0 0 0 0 0 0 127 0" result="hardAlpha"/><feOffset/><feGaussianBlur stdDeviation="263.132"/><feColorMatrix values="0 0 0 0 1 0 0 0 0 1 0 0 0 0 1 0 0 0 1 0"/><feBlend in2="effect5_dropShadow_108_68" result="effect6_dropShadow_108_68"/><feBlend in="SourceGraphic" in2="effect6_dropShadow_108_68" result="shape"/></filter><filter id="ib" x="-394.519" y="-384.864" width="1052.26" height="1016.87" filterUnits="userSpaceOnUse" color-interpolation-filters="sRGB"><feFlood flood-opacity="0" result="BackgroundImageFix"/><feColorMatrix in="SourceAlpha" values="0 0 0 0 0 0 0 0 0 0 0 0 0 0 0 0 0 0 127 0" result="hardAlpha"/><feOffset/><feGaussianBlur stdDeviation="5.532"/><feColorMatrix values="0 0 0 0 1 0 0 0 0 1 0 0 0 0 1 0 0 0 1 0"/><feBlend in2="BackgroundImageFix" result="effect1_dropShadow_108_68"/><feColorMatrix in="SourceAlpha" values="0 0 0 0 0 0 0 0 0 0 0 0 0 0 0 0 0 0 127 0" result="hardAlpha"/><feOffset/><feGaussianBlur stdDeviation="11.063"/><feColorMatrix values="0 0 0 0 1 0 0 0 0 1 0 0 0 0 1 0 0 0 1 0"/><feBlend in2="effect1_dropShadow_108_68" result="effect2_dropShadow_108_68"/><feColorMatrix in="SourceAlpha" values="0 0 0 0 0 0 0 0 0 0 0 0 0 0 0 0 0 0 127 0" result="hardAlpha"/><feOffset/><feGaussianBlur stdDeviation="38.722"/><feColorMatrix values="0 0 0 0 1 0 0 0 0 1 0 0 0 0 1 0 0 0 1 0"/><feBlend in2="effect2_dropShadow_108_68" result="effect3_dropShadow_108_68"/><feColorMatrix in="SourceAlpha" values="0 0 0 0 0 0 0 0 0 0 0 0 0 0 0 0 0 0 127 0" result="hardAlpha"/><feOffset/><feGaussianBlur stdDeviation="77.444"/><feColorMatrix values="0 0 0 0 1 0 0 0 0 1 0 0 0 0 1 0 0 0 1 0"/><feBlend in2="effect3_dropShadow_108_68" result="effect4_dropShadow_108_68"/><feColorMatrix in="SourceAlpha" values="0 0 0 0 0 0 0 0 0 0 0 0 0 0 0 0 0 0 127 0" result="hardAlpha"/><feOffset/><feGaussianBlur stdDeviation="132.762"/><feColorMatrix values="0 0 0 0 1 0 0 0 0 1 0 0 0 0 1 0 0 0 1 0"/><feBlend in2="effect4_dropShadow_108_68" result="effect5_dropShadow_108_68"/><feColorMatrix in="SourceAlpha" values="0 0 0 0 0 0 0 0 0 0 0 0 0 0 0 0 0 0 127 0" result="hardAlpha"/><feOffset/><feGaussianBlur stdDeviation="232.333"/><feColorMatrix values="0 0 0 0 1 0 0 0 0 1 0 0 0 0 1 0 0 0 1 0"/><feBlend in2="effect5_dropShadow_108_68" result="effect6_dropShadow_108_68"/><feBlend in="SourceGraphic" in2="effect6_dropShadow_108_68" result="shape"/></filter><filter id="ic" x="-17.352" y="57.249" width="298.104" height="291.26" filterUnits="userSpaceOnUse" color-interpolation-filters="sRGB"><feFlood flood-opacity="0" result="BackgroundImageFix"/><feColorMatrix in="SourceAlpha" values="0 0 0 0 0 0 0 0 0 0 0 0 0 0 0 0 0 0 127 0" result="hardAlpha"/><feOffset/><feGaussianBlur stdDeviation="1.594"/><feColorMatrix values="0 0 0 0 1 0 0 0 0 1 0 0 0 0 1 0 0 0 1 0"/><feBlend in2="BackgroundImageFix" result="effect1_dropShadow_108_68"/><feColorMatrix in="SourceAlpha" values="0 0 0 0 0 0 0 0 0 0 0 0 0 0 0 0 0 0 127 0" result="hardAlpha"/><feOffset/><feGaussianBlur stdDeviation="3.189"/><feColorMatrix values="0 0 0 0 1 0 0 0 0 1 0 0 0 0 1 0 0 0 1 0"/><feBlend in2="effect1_dropShadow_108_68" result="effect2_dropShadow_108_68"/><feColorMatrix in="SourceAlpha" values="0 0 0 0 0 0 0 0 0 0 0 0 0 0 0 0 0 0 127 0" result="hardAlpha"/><feOffset/><feGaussianBlur stdDeviation="11.161"/><feColorMatrix values="0 0 0 0 1 0 0 0 0 1 0 0 0 0 1 0 0 0 1 0"/><feBlend in2="effect2_dropShadow_108_68" result="effect3_dropShadow_108_68"/><feColorMatrix in="SourceAlpha" values="0 0 0 0 0 0 0 0 0 0 0 0 0 0 0 0 0 0 127 0" result="hardAlpha"/><feOffset/><feGaussianBlur stdDeviation="22.323"/><feColorMatrix values="0 0 0 0 1 0 0 0 0 1 0 0 0 0 1 0 0 0 1 0"/><feBlend in2="effect3_dropShadow_108_68" result="effect4_dropShadow_108_68"/><feColorMatrix in="SourceAlpha" values="0 0 0 0 0 0 0 0 0 0 0 0 0 0 0 0 0 0 127 0" result="hardAlpha"/><feOffset/><feGaussianBlur stdDeviation="38.268"/><feColorMatrix values="0 0 0 0 1 0 0 0 0 1 0 0 0 0 1 0 0 0 1 0"/><feBlend in2="effect4_dropShadow_108_68" result="effect5_dropShadow_108_68"/><feColorMatrix in="SourceAlpha" values="0 0 0 0 0 0 0 0 0 0 0 0 0 0 0 0 0 0 127 0" result="hardAlpha"/><feOffset/><feGaussianBlur stdDeviation="66.969"/><feColorMatrix values="0 0 0 0 1 0 0 0 0 1 0 0 0 0 1 0 0 0 1 0"/><feBlend in2="effect5_dropShadow_108_68" result="effect6_dropShadow_108_68"/><feBlend in="SourceGraphic" in2="effect6_dropShadow_108_68" result="shape"/></filter><filter id="id" x="-141.365" y="-33.268" width="545.953" height="492.61" filterUnits="userSpaceOnUse" color-interpolation-filters="sRGB"><feFlood flood-opacity="0" result="BackgroundImageFix"/><feColorMatrix in="SourceAlpha" values="0 0 0 0 0 0 0 0 0 0 0 0 0 0 0 0 0 0 127 0" result="hardAlpha"/><feOffset/><feGaussianBlur stdDeviation="2.87"/><feColorMatrix values="0 0 0 0 1 0 0 0 0 1 0 0 0 0 1 0 0 0 1 0"/><feBlend in2="BackgroundImageFix" result="effect1_dropShadow_108_68"/><feColorMatrix in="SourceAlpha" values="0 0 0 0 0 0 0 0 0 0 0 0 0 0 0 0 0 0 127 0" result="hardAlpha"/><feOffset/><feGaussianBlur stdDeviation="5.74"/><feColorMatrix values="0 0 0 0 1 0 0 0 0 1 0 0 0 0 1 0 0 0 1 0"/><feBlend in2="effect1_dropShadow_108_68" result="effect2_dropShadow_108_68"/><feColorMatrix in="SourceAlpha" values="0 0 0 0 0 0 0 0 0 0 0 0 0 0 0 0 0 0 127 0" result="hardAlpha"/><feOffset/><feGaussianBlur stdDeviation="20.091"/><feColorMatrix values="0 0 0 0 1 0 0 0 0 1 0 0 0 0 1 0 0 0 1 0"/><feBlend in2="effect2_dropShadow_108_68" result="effect3_dropShadow_108_68"/><feColorMatrix in="SourceAlpha" values="0 0 0 0 0 0 0 0 0 0 0 0 0 0 0 0 0 0 127 0" result="hardAlpha"/><feOffset/><feGaussianBlur stdDeviation="40.181"/><feColorMatrix values="0 0 0 0 1 0 0 0 0 1 0 0 0 0 1 0 0 0 1 0"/><feBlend in2="effect3_dropShadow_108_68" result="effect4_dropShadow_108_68"/><feColorMatrix in="SourceAlpha" values="0 0 0 0 0 0 0 0 0 0 0 0 0 0 0 0 0 0 127 0" result="hardAlpha"/><feOffset/><feGaussianBlur stdDeviation="68.882"/><feColorMatrix values="0 0 0 0 1 0 0 0 0 1 0 0 0 0 1 0 0 0 1 0"/><feBlend in2="effect4_dropShadow_108_68" result="effect5_dropShadow_108_68"/><feColorMatrix in="SourceAlpha" values="0 0 0 0 0 0 0 0 0 0 0 0 0 0 0 0 0 0 127 0" result="hardAlpha"/><feOffset/><feGaussianBlur stdDeviation="120.543"/><feColorMatrix values="0 0 0 0 1 0 0 0 0 1 0 0 0 0 1 0 0 0 1 0"/><feBlend in2="effect5_dropShadow_108_68" result="effect6_dropShadow_108_68"/><feBlend in="SourceGraphic" in2="effect6_dropShadow_108_68" result="shape"/></filter></defs></svg><svg fill="none" viewBox="0 0 261 205" id="services-6" xmlns="http://www.w3.org/2000/svg"><path d="M100.976 59.844c3.833-15.166 25.381-15.166 29.213 0 2.453 9.708 13.091 14.83 22.21 10.696 14.247-6.46 27.682 10.388 18.214 22.84-6.06 7.97-3.433 19.482 5.485 24.033 13.933 7.111 9.139 28.119-6.5 28.48-10.01.232-17.372 9.463-15.37 19.273 3.128 15.327-16.287 24.677-26.32 12.675-6.421-7.681-18.229-7.681-24.651 0-10.033 12.002-29.447 2.652-26.32-12.675 2.002-9.81-5.36-19.041-15.37-19.273-15.638-.361-20.433-21.369-6.5-28.48 8.918-4.551 11.545-16.063 5.485-24.033-9.468-12.452 3.967-29.3 18.214-22.84 9.12 4.135 19.757-.988 22.21-10.696Z" fill="#fff" stroke="#000"/><path d="M127.432 59.844c3.833-15.166 25.381-15.166 29.213 0 2.453 9.708 13.091 14.83 22.21 10.696 14.247-6.46 27.682 10.388 18.214 22.84-6.06 7.97-3.433 19.482 5.485 24.033 13.934 7.111 9.139 28.119-6.5 28.48-10.01.232-17.372 9.463-15.37 19.273 3.128 15.327-16.286 24.677-26.32 12.675-6.421-7.681-18.229-7.681-24.651 0-10.033 12.002-29.447 2.652-26.32-12.675 2.002-9.81-5.36-19.041-15.37-19.273-15.638-.361-20.433-21.369-6.5-28.48 8.918-4.551 11.546-16.063 5.486-24.033-9.468-12.452 3.966-29.3 18.213-22.84 9.119 4.135 19.757-.988 22.21-10.696Z" fill="#fff" stroke="#000"/><path d="M162.799 114.803c0 12.55-9.334 22.65-20.76 22.65-11.426 0-20.76-10.1-20.76-22.65 0-12.55 9.334-22.65 20.76-22.65 11.426 0 20.76 10.1 20.76 22.65Z" fill="#fff" stroke="#000"/><path d="M151.461 114.803c0 6.344-1.107 12.048-3.154 16.146-2.047 4.098-4.979 6.504-8.63 6.504-3.721 0-8.44-2.486-12.253-6.619-3.798-4.118-6.617-9.789-6.617-16.031 0-6.241 2.819-11.912 6.617-16.03 3.813-4.133 8.532-6.62 12.253-6.62 3.651 0 6.583 2.406 8.63 6.505 2.047 4.098 3.154 9.801 3.154 16.145Z" fill="#fff" stroke="#000"/></svg><svg fill="none" viewBox="0 0 16 16" id="services-ellipse-effect" xmlns="http://www.w3.org/2000/svg"><circle cx="7.803" cy="8.127" r="6.78" stroke="#000"/></svg><svg fill="none" viewBox="0 0 36 36" id="services-star-effect" xmlns="http://www.w3.org/2000/svg"><path d="M28.496 24.544c1.001 2.99 2.451 5.521 3.732 7.39-1.87-1.28-4.4-2.73-7.39-3.731-3.29-1.102-7.143-1.664-11.28-.851-2.776.545-5.663 1.705-8.581 3.717 2.01-2.918 3.172-5.806 3.717-8.582.812-4.137.25-7.99-.852-11.28-1.001-2.99-2.451-5.521-3.732-7.39 1.87 1.28 4.4 2.73 7.391 3.732 3.289 1.101 7.143 1.663 11.28.85 2.776-.544 5.663-1.705 8.581-3.716-2.012 2.918-3.172 5.806-3.718 8.582-.812 4.138-.25 7.991.852 11.28Z" stroke="#000"/></svg><svg fill="none" viewBox="0 0 98 70" id="services-stick-effect" xmlns="http://www.w3.org/2000/svg"><path d="M56.828 35.563C46.444 7.142 17.04-1.747 1.28 2.155L6.653 15.27c9.804-2.655 31.472-.443 43.222 28.245C60.26 68.873 86.073 71.234 97.268 66.989l-4.655-11.367s-25.401 8.362-35.785-20.06Z" stroke="#000"/></svg><svg fill="none" viewBox="0 0 361 349" id="tabler_brand-upwork" xmlns="http://www.w3.org/2000/svg"><g filter="url(#na)"><path d="M164.375 163.542v8.958a5.376 5.376 0 0 0 9.176 3.801 5.376 5.376 0 0 0 1.574-3.801v-8.958h1.792l7.166 10.75c1.477 2.363 3.485 3.583 6.271 3.583a6.271 6.271 0 0 0 0-12.542c-3.632 0-5.62 1.792-6.271 5.375-.433 2.383-1.627 7.167-3.583 14.334" stroke="#fff" stroke-width="2" stroke-linecap="round" stroke-linejoin="round"/></g><defs><filter id="na" x="-3.54" y="-11.54" width="368.08" height="368.08" filterUnits="userSpaceOnUse" color-interpolation-filters="sRGB"><feFlood flood-opacity="0" result="BackgroundImageFix"/><feColorMatrix in="SourceAlpha" values="0 0 0 0 0 0 0 0 0 0 0 0 0 0 0 0 0 0 127 0" result="hardAlpha"/><feOffset/><feGaussianBlur stdDeviation="1.935"/><feColorMatrix values="0 0 0 0 1 0 0 0 0 1 0 0 0 0 1 0 0 0 1 0"/><feBlend in2="BackgroundImageFix" result="effect1_dropShadow_184_479"/><feColorMatrix in="SourceAlpha" values="0 0 0 0 0 0 0 0 0 0 0 0 0 0 0 0 0 0 127 0" result="hardAlpha"/><feOffset/><feGaussianBlur stdDeviation="3.87"/><feColorMatrix values="0 0 0 0 1 0 0 0 0 1 0 0 0 0 1 0 0 0 1 0"/><feBlend in2="effect1_dropShadow_184_479" result="effect2_dropShadow_184_479"/><feColorMatrix in="SourceAlpha" values="0 0 0 0 0 0 0 0 0 0 0 0 0 0 0 0 0 0 127 0" result="hardAlpha"/><feOffset/><feGaussianBlur stdDeviation="13.545"/><feColorMatrix values="0 0 0 0 1 0 0 0 0 1 0 0 0 0 1 0 0 0 1 0"/><feBlend in2="effect2_dropShadow_184_479" result="effect3_dropShadow_184_479"/><feColorMatrix in="SourceAlpha" values="0 0 0 0 0 0 0 0 0 0 0 0 0 0 0 0 0 0 127 0" result="hardAlpha"/><feOffset/><feGaussianBlur stdDeviation="27.09"/><feColorMatrix values="0 0 0 0 1 0 0 0 0 1 0 0 0 0 1 0 0 0 1 0"/><feBlend in2="effect3_dropShadow_184_479" result="effect4_dropShadow_184_479"/><feColorMatrix in="SourceAlpha" values="0 0 0 0 0 0 0 0 0 0 0 0 0 0 0 0 0 0 127 0" result="hardAlpha"/><feOffset/><feGaussianBlur stdDeviation="46.44"/><feColorMatrix values="0 0 0 0 1 0 0 0 0 1 0 0 0 0 1 0 0 0 1 0"/><feBlend in2="effect4_dropShadow_184_479" result="effect5_dropShadow_184_479"/><feColorMatrix in="SourceAlpha" values="0 0 0 0 0 0 0 0 0 0 0 0 0 0 0 0 0 0 127 0" result="hardAlpha"/><feOffset/><feGaussianBlur stdDeviation="81.27"/><feColorMatrix values="0 0 0 0 1 0 0 0 0 1 0 0 0 0 1 0 0 0 1 0"/><feBlend in2="effect5_dropShadow_184_479" result="effect6_dropShadow_184_479"/><feBlend in="SourceGraphic" in2="effect6_dropShadow_184_479" result="shape"/></filter></defs></svg></svg>