<?xml version="1.0" encoding="utf-8"?><svg viewBox="0 0 168 162" xmlns="http://www.w3.org/2000/svg" xmlns:xlink="http://www.w3.org/1999/xlink"><style>:root>svg{display:none}:root>svg:target{display:block}</style><svg fill="none" viewBox="0 0 168 45" id="ellipse-btn" xmlns="http://www.w3.org/2000/svg"><path d="M167.462 30.432c-.185 2.596-2.502 4.978-6.977 7.023-4.44 2.028-10.832 3.64-18.79 4.786-15.909 2.29-37.955 2.698-62.862.923-24.908-1.775-44.672-5.163-58.091-9.54-6.713-2.19-11.806-4.615-15.158-7.187C2.225 23.86.696 21.209.884 18.56c.19-2.66 2.107-5.256 5.825-7.611 3.708-2.348 9.122-4.398 16.1-5.985C36.759 1.79 56.85.494 81.748 2.268c24.896 1.774 46.602 6.05 61.967 11.317 7.686 2.635 13.759 5.509 17.849 8.425 4.124 2.939 6.084 5.812 5.898 8.422Z" stroke="#000"/></svg><svg fill="none" viewBox="0 0 163 162" id="pen" xmlns="http://www.w3.org/2000/svg"><path fill="#fff" stroke="#000" d="M31.164 109.37 133.685 6.848l21.339 21.339L52.502 130.708z"/><path fill="#fff" stroke="#000" d="M120.847 19.686 133.684 6.85l21.339 21.338-12.838 12.837z"/><path fill="#fff" stroke="#000" d="m135.885 10.158 9.45-9.45L162.11 17.48l-9.45 9.45zM52.38 130.631l-38.574 17.417 17.417-38.574 21.157 21.157Z"/><path d="m29.092 141.146-15.285 6.902 6.9-15.286 8.385 8.384Z" fill="#fff" stroke="#000"/></svg></svg>