<?xml version="1.0" encoding="utf-8"?><svg viewBox="0 0 361 349" xmlns="http://www.w3.org/2000/svg" xmlns:xlink="http://www.w3.org/1999/xlink"><style>:root>svg{display:none}:root>svg:target{display:block}</style><svg fill="none" viewBox="0 0 151 8" id="arrow-btn" xmlns="http://www.w3.org/2000/svg"><path d="M150.354 4.354a.5.5 0 0 0 0-.708L147.172.464a.501.501 0 0 0-.708.708L149.293 4l-2.829 2.828a.5.5 0 0 0 .708.708l3.182-3.182ZM0 4.5h150v-1H0v1Z" fill="#000"/></svg><svg fill="none" viewBox="0 0 168 45" id="ellipse-btn" xmlns="http://www.w3.org/2000/svg"><path d="M167.462 30.432c-.185 2.596-2.502 4.978-6.977 7.023-4.44 2.028-10.832 3.64-18.79 4.786-15.909 2.29-37.955 2.698-62.862.923-24.908-1.775-44.672-5.163-58.091-9.54-6.713-2.19-11.806-4.615-15.158-7.187C2.225 23.86.696 21.209.884 18.56c.19-2.66 2.107-5.256 5.825-7.611 3.708-2.348 9.122-4.398 16.1-5.985C36.759 1.79 56.85.494 81.748 2.268c24.896 1.774 46.602 6.05 61.967 11.317 7.686 2.635 13.759 5.509 17.849 8.425 4.124 2.939 6.084 5.812 5.898 8.422Z" stroke="#000"/></svg><svg fill="none" viewBox="0 0 343 343" id="inst" xmlns="http://www.w3.org/2000/svg"><g filter="url(#ca)"><path d="M171.5 164.133a7.365 7.365 0 0 0-7.226 8.804 7.368 7.368 0 0 0 14.593-1.437 7.375 7.375 0 0 0-7.367-7.367Zm0 12.812a5.445 5.445 0 1 1-.002-10.89 5.445 5.445 0 0 1 .002 10.89Zm7.688-21.781h-15.376a8.661 8.661 0 0 0-8.648 8.648v15.376a8.661 8.661 0 0 0 8.648 8.648h15.376a8.661 8.661 0 0 0 8.648-8.648v-15.376a8.661 8.661 0 0 0-8.648-8.648Zm6.726 24.024a6.73 6.73 0 0 1-6.726 6.726h-15.376a6.73 6.73 0 0 1-6.726-6.726v-15.376a6.73 6.73 0 0 1 6.726-6.726h15.376a6.73 6.73 0 0 1 6.726 6.726v15.376Zm-4.484-16.016a1.603 1.603 0 0 1-1.914 1.571 1.603 1.603 0 1 1 1.445-2.704c.3.301.469.708.469 1.133Z" fill="#fff"/></g><defs><filter id="ca" x="-3.98" y="-3.98" width="350.96" height="350.96" filterUnits="userSpaceOnUse" color-interpolation-filters="sRGB"><feFlood flood-opacity="0" result="BackgroundImageFix"/><feColorMatrix in="SourceAlpha" values="0 0 0 0 0 0 0 0 0 0 0 0 0 0 0 0 0 0 127 0" result="hardAlpha"/><feOffset/><feGaussianBlur stdDeviation="1.845"/><feColorMatrix values="0 0 0 0 1 0 0 0 0 1 0 0 0 0 1 0 0 0 1 0"/><feBlend in2="BackgroundImageFix" result="effect1_dropShadow_184_477"/><feColorMatrix in="SourceAlpha" values="0 0 0 0 0 0 0 0 0 0 0 0 0 0 0 0 0 0 127 0" result="hardAlpha"/><feOffset/><feGaussianBlur stdDeviation="3.69"/><feColorMatrix values="0 0 0 0 1 0 0 0 0 1 0 0 0 0 1 0 0 0 1 0"/><feBlend in2="effect1_dropShadow_184_477" result="effect2_dropShadow_184_477"/><feColorMatrix in="SourceAlpha" values="0 0 0 0 0 0 0 0 0 0 0 0 0 0 0 0 0 0 127 0" result="hardAlpha"/><feOffset/><feGaussianBlur stdDeviation="12.915"/><feColorMatrix values="0 0 0 0 1 0 0 0 0 1 0 0 0 0 1 0 0 0 1 0"/><feBlend in2="effect2_dropShadow_184_477" result="effect3_dropShadow_184_477"/><feColorMatrix in="SourceAlpha" values="0 0 0 0 0 0 0 0 0 0 0 0 0 0 0 0 0 0 127 0" result="hardAlpha"/><feOffset/><feGaussianBlur stdDeviation="25.83"/><feColorMatrix values="0 0 0 0 1 0 0 0 0 1 0 0 0 0 1 0 0 0 1 0"/><feBlend in2="effect3_dropShadow_184_477" result="effect4_dropShadow_184_477"/><feColorMatrix in="SourceAlpha" values="0 0 0 0 0 0 0 0 0 0 0 0 0 0 0 0 0 0 127 0" result="hardAlpha"/><feOffset/><feGaussianBlur stdDeviation="44.28"/><feColorMatrix values="0 0 0 0 1 0 0 0 0 1 0 0 0 0 1 0 0 0 1 0"/><feBlend in2="effect4_dropShadow_184_477" result="effect5_dropShadow_184_477"/><feColorMatrix in="SourceAlpha" values="0 0 0 0 0 0 0 0 0 0 0 0 0 0 0 0 0 0 127 0" result="hardAlpha"/><feOffset/><feGaussianBlur stdDeviation="77.49"/><feColorMatrix values="0 0 0 0 1 0 0 0 0 1 0 0 0 0 1 0 0 0 1 0"/><feBlend in2="effect5_dropShadow_184_477" result="effect6_dropShadow_184_477"/><feBlend in="SourceGraphic" in2="effect6_dropShadow_184_477" result="shape"/></filter></defs></svg><svg fill="none" viewBox="0 0 163 162" id="pen" xmlns="http://www.w3.org/2000/svg"><path fill="#fff" stroke="#000" d="M31.164 109.37 133.685 6.848l21.339 21.339L52.502 130.708z"/><path fill="#fff" stroke="#000" d="M120.847 19.686 133.684 6.85l21.339 21.338-12.838 12.837z"/><path fill="#fff" stroke="#000" d="m135.885 10.158 9.45-9.45L162.11 17.48l-9.45 9.45zM52.38 130.631l-38.574 17.417 17.417-38.574 21.157 21.157Z"/><path d="m29.092 141.146-15.285 6.902 6.9-15.286 8.385 8.384Z" fill="#fff" stroke="#000"/></svg><svg fill="none" viewBox="0 0 361 349" id="tabler_brand-upwork" xmlns="http://www.w3.org/2000/svg"><g filter="url(#ea)"><path d="M164.375 163.542v8.958a5.376 5.376 0 0 0 9.176 3.801 5.376 5.376 0 0 0 1.574-3.801v-8.958h1.792l7.166 10.75c1.477 2.363 3.485 3.583 6.271 3.583a6.271 6.271 0 0 0 0-12.542c-3.632 0-5.62 1.792-6.271 5.375-.433 2.383-1.627 7.167-3.583 14.334" stroke="#fff" stroke-width="2" stroke-linecap="round" stroke-linejoin="round"/></g><defs><filter id="ea" x="-3.54" y="-11.54" width="368.08" height="368.08" filterUnits="userSpaceOnUse" color-interpolation-filters="sRGB"><feFlood flood-opacity="0" result="BackgroundImageFix"/><feColorMatrix in="SourceAlpha" values="0 0 0 0 0 0 0 0 0 0 0 0 0 0 0 0 0 0 127 0" result="hardAlpha"/><feOffset/><feGaussianBlur stdDeviation="1.935"/><feColorMatrix values="0 0 0 0 1 0 0 0 0 1 0 0 0 0 1 0 0 0 1 0"/><feBlend in2="BackgroundImageFix" result="effect1_dropShadow_184_479"/><feColorMatrix in="SourceAlpha" values="0 0 0 0 0 0 0 0 0 0 0 0 0 0 0 0 0 0 127 0" result="hardAlpha"/><feOffset/><feGaussianBlur stdDeviation="3.87"/><feColorMatrix values="0 0 0 0 1 0 0 0 0 1 0 0 0 0 1 0 0 0 1 0"/><feBlend in2="effect1_dropShadow_184_479" result="effect2_dropShadow_184_479"/><feColorMatrix in="SourceAlpha" values="0 0 0 0 0 0 0 0 0 0 0 0 0 0 0 0 0 0 127 0" result="hardAlpha"/><feOffset/><feGaussianBlur stdDeviation="13.545"/><feColorMatrix values="0 0 0 0 1 0 0 0 0 1 0 0 0 0 1 0 0 0 1 0"/><feBlend in2="effect2_dropShadow_184_479" result="effect3_dropShadow_184_479"/><feColorMatrix in="SourceAlpha" values="0 0 0 0 0 0 0 0 0 0 0 0 0 0 0 0 0 0 127 0" result="hardAlpha"/><feOffset/><feGaussianBlur stdDeviation="27.09"/><feColorMatrix values="0 0 0 0 1 0 0 0 0 1 0 0 0 0 1 0 0 0 1 0"/><feBlend in2="effect3_dropShadow_184_479" result="effect4_dropShadow_184_479"/><feColorMatrix in="SourceAlpha" values="0 0 0 0 0 0 0 0 0 0 0 0 0 0 0 0 0 0 127 0" result="hardAlpha"/><feOffset/><feGaussianBlur stdDeviation="46.44"/><feColorMatrix values="0 0 0 0 1 0 0 0 0 1 0 0 0 0 1 0 0 0 1 0"/><feBlend in2="effect4_dropShadow_184_479" result="effect5_dropShadow_184_479"/><feColorMatrix in="SourceAlpha" values="0 0 0 0 0 0 0 0 0 0 0 0 0 0 0 0 0 0 127 0" result="hardAlpha"/><feOffset/><feGaussianBlur stdDeviation="81.27"/><feColorMatrix values="0 0 0 0 1 0 0 0 0 1 0 0 0 0 1 0 0 0 1 0"/><feBlend in2="effect5_dropShadow_184_479" result="effect6_dropShadow_184_479"/><feBlend in="SourceGraphic" in2="effect6_dropShadow_184_479" result="shape"/></filter></defs></svg></svg>