<svg width="43" height="43" viewBox="0 0 43 43" fill="none" xmlns="http://www.w3.org/2000/svg">
<path d="M5.375 12.5415V21.4998C5.375 22.9254 5.94129 24.2925 6.9493 25.3005C7.95731 26.3085 9.32446 26.8748 10.75 26.8748C12.1755 26.8748 13.5427 26.3085 14.5507 25.3005C15.5587 24.2925 16.125 22.9254 16.125 21.4998V12.5415H17.9167L25.0833 23.2915C26.5597 25.6547 28.5681 26.8748 31.3542 26.8748C33.0173 26.8748 34.6123 26.2142 35.7883 25.0382C36.9643 23.8621 37.625 22.2671 37.625 20.604C37.625 18.9409 36.9643 17.3459 35.7883 16.1699C34.6123 14.9938 33.0173 14.3332 31.3542 14.3332C27.7225 14.3332 25.7337 16.1248 25.0833 19.7082C24.6497 22.0911 23.4565 26.8748 21.5 34.0415" stroke="black" stroke-width="2" stroke-linecap="round" stroke-linejoin="round"/>
</svg>
