<svg width="168" height="45" viewBox="0 0 168 45" fill="none" xmlns="http://www.w3.org/2000/svg">
<path d="M167.462 30.432C167.277 33.0278 164.96 35.41 160.485 37.4546C156.045 39.4827 149.653 41.0951 141.695 42.2407C125.786 44.5307 103.74 44.9388 78.8331 43.1638C53.9246 41.3886 34.1611 38.0005 20.742 33.6242C14.0289 31.4349 8.93645 29.0087 5.58351 26.4368C2.22527 23.8609 0.696093 21.2094 0.884878 18.5605C1.0745 15.8997 2.99117 13.3037 6.70889 10.949C10.4167 8.60059 15.8306 6.55076 22.809 4.96376C36.7598 1.79111 56.8503 0.493149 81.7477 2.26751C106.644 4.0418 128.35 8.31818 143.715 13.5853C151.401 16.22 157.474 19.094 161.564 22.0096C165.688 24.949 167.648 27.822 167.462 30.432Z" stroke="black"/>
</svg>
