<svg width="266" height="50" viewBox="0 0 266 50" fill="none" xmlns="http://www.w3.org/2000/svg">
<path d="M264.873 17.6744C264.957 19.0048 264.24 20.4151 262.587 21.8992C260.939 23.3793 258.427 24.8679 255.1 26.3418C248.452 29.2875 238.671 32.1233 226.374 34.7322C201.787 39.9483 167.242 44.2377 127.834 46.7121C88.425 49.1866 56.7745 49.0535 34.8904 46.7571C23.9439 45.6084 15.4706 43.9212 9.69886 41.7631C6.81201 40.6836 4.63045 39.497 3.15504 38.2239C1.68409 36.9546 0.94531 35.6279 0.858907 34.2518C0.77226 32.8719 1.33951 31.4095 2.64138 29.8746C3.94492 28.3377 5.95724 26.7632 8.67735 25.1821C14.116 22.0207 22.2868 18.8881 32.9755 15.9795C54.3451 10.1646 85.675 5.2726 125.077 2.79856C164.478 0.324577 199.334 1.06059 224.426 3.96078C236.976 5.41133 247.06 7.40075 254.043 9.79044C257.537 10.9861 260.226 12.2725 262.056 13.6224C263.893 14.9774 264.789 16.3386 264.873 17.6744Z" stroke="black"/>
</svg>
