<svg width="35" height="35" viewBox="0 0 35 35" fill="none" xmlns="http://www.w3.org/2000/svg">
<path d="M17.5 9.77344C15.9718 9.77344 14.478 10.2266 13.2074 11.0756C11.9367 11.9246 10.9464 13.1313 10.3616 14.5432C9.77678 15.955 9.62377 17.5086 9.9219 19.0074C10.22 20.5062 10.9559 21.8829 12.0365 22.9635C13.1171 24.0441 14.4938 24.78 15.9926 25.0781C17.4914 25.3762 19.045 25.2232 20.4568 24.6384C21.8687 24.0536 23.0754 23.0633 23.9244 21.7926C24.7734 20.522 25.2266 19.0282 25.2266 17.5C25.2239 15.4516 24.409 13.4879 22.9606 12.0394C21.5121 10.591 19.5484 9.7761 17.5 9.77344ZM17.5 23.2109C16.3705 23.2109 15.2663 22.876 14.3272 22.2485C13.388 21.6209 12.656 20.729 12.2238 19.6855C11.7915 18.6419 11.6784 17.4937 11.8988 16.3859C12.1192 15.278 12.6631 14.2604 13.4618 13.4618C14.2604 12.6631 15.278 12.1192 16.3859 11.8988C17.4937 11.6784 18.6419 11.7915 19.6855 12.2238C20.729 12.656 21.6209 13.388 22.2485 14.3272C22.876 15.2663 23.2109 16.3705 23.2109 17.5C23.2109 19.0146 22.6093 20.4672 21.5382 21.5382C20.4672 22.6093 19.0146 23.2109 17.5 23.2109ZM25.5625 0.367188H9.4375C7.03272 0.369855 4.7272 1.32633 3.02677 3.02677C1.32633 4.7272 0.369855 7.03272 0.367188 9.4375V25.5625C0.369855 27.9673 1.32633 30.2728 3.02677 31.9732C4.7272 33.6737 7.03272 34.6301 9.4375 34.6328H25.5625C27.9673 34.6301 30.2728 33.6737 31.9732 31.9732C33.6737 30.2728 34.6301 27.9673 34.6328 25.5625V9.4375C34.6301 7.03272 33.6737 4.7272 31.9732 3.02677C30.2728 1.32633 27.9673 0.369855 25.5625 0.367188ZM32.6172 25.5625C32.6172 27.4335 31.8739 29.2279 30.5509 30.5509C29.2279 31.8739 27.4335 32.6172 25.5625 32.6172H9.4375C7.56648 32.6172 5.77209 31.8739 4.44908 30.5509C3.12607 29.2279 2.38281 27.4335 2.38281 25.5625V9.4375C2.38281 7.56648 3.12607 5.77209 4.44908 4.44908C5.77209 3.12607 7.56648 2.38281 9.4375 2.38281H25.5625C27.4335 2.38281 29.2279 3.12607 30.5509 4.44908C31.8739 5.77209 32.6172 7.56648 32.6172 9.4375V25.5625ZM27.9141 8.76562C27.9141 9.09784 27.8155 9.42259 27.631 9.69881C27.4464 9.97503 27.1841 10.1903 26.8772 10.3175C26.5702 10.4446 26.2325 10.4778 25.9067 10.413C25.5809 10.3482 25.2816 10.1883 25.0467 9.95334C24.8117 9.71844 24.6518 9.41914 24.587 9.09332C24.5222 8.76749 24.5554 8.42976 24.6825 8.12284C24.8097 7.81591 25.025 7.55358 25.3012 7.36902C25.5774 7.18445 25.9022 7.08594 26.2344 7.08594C26.6799 7.08594 27.1071 7.2629 27.4221 7.57791C27.7371 7.89291 27.9141 8.32014 27.9141 8.76562Z" fill="#222222"/>
</svg>
