<svg width="36" height="36" viewBox="0 0 36 36" fill="none" xmlns="http://www.w3.org/2000/svg">
<path d="M28.4956 24.5444C29.4971 27.5344 30.9471 30.0655 32.2276 31.9347C30.3584 30.6542 27.8273 29.2042 24.8373 28.2027C21.5489 27.1012 17.6955 26.5391 13.558 27.3515C10.7824 27.8966 7.89459 29.0572 4.97651 31.0686C6.98795 28.1505 8.14857 25.2627 8.6936 22.4871C9.50605 18.3496 8.94389 14.4962 7.84244 11.2079C6.84078 8.21742 5.39057 5.68604 4.10995 3.81683C5.97927 5.09734 8.51081 6.54741 11.5014 7.54893C14.7899 8.65023 18.6435 9.21221 22.7811 8.39965C25.5565 7.85459 28.4441 6.69405 31.362 4.6829C29.3502 7.60122 28.1895 10.4893 27.6444 13.2651C26.832 17.4026 27.3941 21.256 28.4956 24.5444Z" stroke="black"/>
</svg>
