<svg width="179" height="134" viewBox="0 0 179 134" fill="none" xmlns="http://www.w3.org/2000/svg">
<path d="M61.4999 123.672C61.4999 129.09 57.1684 133.471 51.8395 133.471C46.5107 133.471 42.1792 129.09 42.1792 123.672C42.1792 118.253 46.5107 113.872 51.8395 113.872C57.1684 113.872 61.4999 118.253 61.4999 123.672Z" fill="white" stroke="black"/>
<path d="M101.19 123.673C101.19 129.091 96.8581 133.472 91.5292 133.472C86.2004 133.472 81.8689 129.091 81.8689 123.673C81.8689 118.254 86.2004 113.873 91.5292 113.873C96.8581 113.873 101.19 118.254 101.19 123.673Z" fill="white" stroke="black"/>
<path fill-rule="evenodd" clip-rule="evenodd" d="M1 30.3718H68.8919C73.7584 30.3718 77.7035 34.3169 77.7035 39.1835C77.7035 44.05 73.7584 47.9952 68.8919 47.9952H27.617L45.6737 90.5712C47.5739 95.0515 45.4822 100.224 41.002 102.124C36.5217 104.024 31.3494 101.932 29.4492 97.4521L1 30.3718Z" fill="white" stroke="black" stroke-linecap="round"/>
<path fill-rule="evenodd" clip-rule="evenodd" d="M134.411 1H168.786C173.653 1 177.598 4.94512 177.598 9.81167C177.598 14.6782 173.653 18.6233 168.786 18.6233H146.375L114.844 98.041C113.048 102.564 107.926 104.775 103.403 102.979C98.8797 101.183 96.6688 96.0609 98.4646 91.5378L134.411 1Z" fill="white" stroke="black" stroke-linecap="round"/>
<path d="M30.4988 99.9028L8.06982 47.3147H134.762L114.121 99.5196C111.773 105.459 106.034 109.36 99.648 109.36H44.8142C38.5787 109.36 32.9451 105.638 30.4988 99.9028Z" fill="white" stroke="black"/>
<circle cx="167.313" cy="9.56712" r="4.64976" fill="white" stroke="black"/>
</svg>
