<svg width="261" height="205" viewBox="0 0 261 205" fill="none" xmlns="http://www.w3.org/2000/svg">
<path d="M100.976 59.8445C104.809 44.6784 126.357 44.6784 130.189 59.8445C132.642 69.5518 143.28 74.6749 152.399 70.5403C166.646 64.0806 180.081 80.9276 170.613 93.3797C164.553 101.35 167.18 112.862 176.098 117.413C190.031 124.524 185.237 145.532 169.598 145.893C159.588 146.125 152.226 155.356 154.228 165.166C157.356 180.493 137.941 189.843 127.908 177.841C121.487 170.16 109.679 170.16 103.257 177.841C93.2239 189.843 73.8098 180.493 76.9373 165.166C78.9391 155.356 71.5771 146.125 61.5674 145.893C45.9288 145.532 41.1339 124.524 55.067 117.413C63.9851 112.862 66.6125 101.35 60.5524 93.3797C51.0845 80.9276 64.5195 64.0806 78.7662 70.5403C87.8851 74.6749 98.5234 69.5518 100.976 59.8445Z" fill="white" stroke="black"/>
<path d="M127.432 59.8445C131.265 44.6784 152.813 44.6784 156.645 59.8445C159.098 69.5518 169.736 74.6749 178.855 70.5403C193.102 64.0806 206.537 80.9276 197.069 93.3797C191.009 101.35 193.636 112.862 202.554 117.413C216.488 124.524 211.693 145.532 196.054 145.893C186.044 146.125 178.682 155.356 180.684 165.166C183.812 180.493 164.398 189.843 154.364 177.841C147.943 170.16 136.135 170.16 129.713 177.841C119.68 189.843 100.266 180.493 103.393 165.166C105.395 155.356 98.0332 146.125 88.0235 145.893C72.3848 145.532 67.59 124.524 81.523 117.413C90.4411 112.862 93.0686 101.35 87.0085 93.3797C77.5406 80.9276 90.9755 64.0806 105.222 70.5403C114.341 74.6749 124.979 69.5518 127.432 59.8445Z" fill="white" stroke="black"/>
<path d="M162.799 114.803C162.799 127.353 153.465 137.453 142.039 137.453C130.613 137.453 121.279 127.353 121.279 114.803C121.279 102.253 130.613 92.1538 142.039 92.1538C153.465 92.1538 162.799 102.253 162.799 114.803Z" fill="white" stroke="black"/>
<path d="M151.461 114.803C151.461 121.147 150.354 126.851 148.307 130.949C146.26 135.047 143.328 137.453 139.677 137.453C135.956 137.453 131.237 134.967 127.424 130.834C123.626 126.716 120.807 121.045 120.807 114.803C120.807 108.562 123.626 102.891 127.424 98.7732C131.237 94.6401 135.956 92.1538 139.677 92.1538C143.328 92.1538 146.26 94.5595 148.307 98.6576C150.354 102.756 151.461 108.459 151.461 114.803Z" fill="white" stroke="black"/>
</svg>
