<svg width="139" height="126" viewBox="0 0 139 126" fill="none" xmlns="http://www.w3.org/2000/svg">
<rect x="0.5" y="12.4904" width="137.751" height="16.1297" rx="5.63289" fill="white" stroke="black"/>
<rect x="0.500244" y="55.3151" width="137.751" height="16.1297" rx="5.63289" fill="white" stroke="black"/>
<rect x="0.500244" y="98.1389" width="137.751" height="16.1297" rx="5.63289" fill="white" stroke="black"/>
<path d="M53.0309 105.824C53.0309 116.697 44.3328 125.5 33.6169 125.5C22.901 125.5 14.2029 116.697 14.2029 105.824C14.2029 94.9509 22.901 86.1478 33.6169 86.1478C44.3328 86.1478 53.0309 94.9509 53.0309 105.824Z" fill="white" stroke="black"/>
<path d="M124.12 62.9995C124.12 73.8724 115.422 82.6755 104.706 82.6755C93.9901 82.6755 85.292 73.8724 85.292 62.9995C85.292 52.1266 93.9901 43.3235 104.706 43.3235C115.422 43.3235 124.12 52.1266 124.12 62.9995Z" fill="white" stroke="black"/>
<path d="M89.0043 20.176C89.0043 31.049 80.3062 39.852 69.5903 39.852C58.8744 39.852 50.1763 31.049 50.1763 20.176C50.1763 9.30307 58.8744 0.5 69.5903 0.5C80.3062 0.5 89.0043 9.30307 89.0043 20.176Z" fill="white" stroke="black"/>
<circle cx="69.8031" cy="20.1269" r="6.78013" fill="white" stroke="black"/>
<circle cx="104.919" cy="62.9516" r="6.78013" fill="white" stroke="black"/>
<circle cx="33.8309" cy="105.776" r="6.78013" fill="white" stroke="black"/>
<rect x="0.5" y="12.4904" width="137.751" height="16.1297" rx="5.63289" fill="white" stroke="black"/>
<rect x="0.500244" y="55.3151" width="137.751" height="16.1297" rx="5.63289" fill="white" stroke="black"/>
<rect x="0.500244" y="98.1389" width="137.751" height="16.1297" rx="5.63289" fill="white" stroke="black"/>
<path d="M53.0309 105.824C53.0309 116.697 44.3328 125.5 33.6169 125.5C22.901 125.5 14.2029 116.697 14.2029 105.824C14.2029 94.9509 22.901 86.1478 33.6169 86.1478C44.3328 86.1478 53.0309 94.9509 53.0309 105.824Z" fill="white" stroke="black"/>
<path d="M124.12 62.9995C124.12 73.8724 115.422 82.6755 104.706 82.6755C93.9901 82.6755 85.292 73.8724 85.292 62.9995C85.292 52.1266 93.9901 43.3235 104.706 43.3235C115.422 43.3235 124.12 52.1266 124.12 62.9995Z" fill="white" stroke="black"/>
<path d="M89.0043 20.176C89.0043 31.049 80.3062 39.852 69.5903 39.852C58.8744 39.852 50.1763 31.049 50.1763 20.176C50.1763 9.30307 58.8744 0.5 69.5903 0.5C80.3062 0.5 89.0043 9.30307 89.0043 20.176Z" fill="white" stroke="black"/>
</svg>
