<svg width="140" height="169" viewBox="0 0 140 169" fill="none" xmlns="http://www.w3.org/2000/svg">
<rect x="29.5391" y="72.83" width="89.9175" height="12.7169" rx="6.35847" transform="rotate(-32.728 29.5391 72.83)" fill="white" stroke="black"/>
<rect x="36.0925" y="82.1074" width="89.9175" height="12.7169" rx="6.35847" transform="rotate(32.9008 36.0925 82.1074)" fill="white" stroke="black"/>
<circle cx="111.968" cy="27.874" r="27.374" fill="white" stroke="black"/>
<circle cx="27.874" cy="81.7319" r="27.374" fill="white" stroke="black"/>
<path d="M139.342 140.787C139.342 155.637 127.095 167.689 111.968 167.689C96.8419 167.689 84.5942 155.637 84.5942 140.787C84.5942 125.938 96.8419 113.886 111.968 113.886C127.095 113.886 139.342 125.938 139.342 140.787Z" fill="white" stroke="black"/>
<circle cx="28.8187" cy="80.7874" r="8.47638" fill="white" stroke="black"/>
<path d="M121.39 140.315C121.39 144.972 117.408 148.791 112.441 148.791C107.474 148.791 103.492 144.972 103.492 140.315C103.492 135.657 107.474 131.838 112.441 131.838C117.408 131.838 121.39 135.657 121.39 140.315Z" fill="white" stroke="black"/>
<circle cx="112.441" cy="27.4015" r="8.94882" fill="white" stroke="black"/>
</svg>
